<svg width="35" height="35" viewBox="0 0 35 35" fill="none" xmlns="http://www.w3.org/2000/svg">
<path d="M0 14.6241C0 12.8571 0.616559 11.2782 1.82912 9.88722C3.04169 8.49624 4.58309 7.61278 6.45332 7.23684C6.96711 5.13158 8.13858 3.38346 9.98825 2.03008C11.8379 0.676692 13.9342 0 16.3183 0C18.6201 0 20.6958 0.657895 22.525 1.97368C24.3541 3.28947 25.5255 4.9812 26.0804 7.03008H26.6353C28.9372 7.03008 30.9102 7.76316 32.5543 9.24812C34.1779 10.7143 35 12.5188 35 14.6053C35 15.7331 34.7534 16.8045 34.2396 17.8008C33.7258 18.797 33.027 19.6617 32.1227 20.3759V20.4323C32.1227 21.5414 31.7322 22.5376 30.9718 23.4211C30.2114 24.3045 29.2454 24.8496 28.0945 25.094C27.8068 26.2594 27.1697 27.2556 26.2243 28.0639C25.2789 28.8722 24.1486 29.3797 22.8743 29.5677C23.4703 30.2068 23.7581 30.9211 23.7581 31.6917C23.7581 32.594 23.4087 33.3647 22.7099 34.0226C22.0112 34.6617 21.1685 35 20.182 35C19.1955 35 18.3529 34.6805 17.6541 34.0226C16.9554 33.3835 16.606 32.594 16.606 31.6917C16.606 31.3346 16.6676 30.9774 16.8115 30.6203H16.606C15.414 30.6203 14.3864 30.2256 13.5232 29.4361C12.66 28.6466 12.2284 27.7068 12.2284 26.6165C12.2284 25.8647 12.4339 25.188 12.845 24.6053C11.7763 24.0602 11.0159 23.2895 10.5432 22.2556H7.91251V22.2368C5.71345 22.1053 3.84322 21.3158 2.30182 19.8496C0.760422 18.3835 0 16.6541 0 14.6241ZM2.87727 14.1541C2.87727 15.6579 3.45273 16.9361 4.60364 17.9887C6.33 19.5677 7.15208 19.5677 8.77569 19.5677C9.78273 19.5677 10.7281 19.3609 11.5913 18.9286C11.8379 20.3196 12.5573 21.485 13.7287 22.4248C14.9002 23.3647 16.2977 23.8158 17.8802 23.8158C19.6682 23.8158 21.1891 23.2331 22.4427 22.0865C23.2854 22.9887 24.3335 23.4211 25.6077 23.4211C26.7792 23.4211 27.7657 23.0451 28.6083 22.2932C29.4304 21.5414 29.8415 20.6203 29.8415 19.5489C30.6635 19.0414 31.3212 18.4023 31.7939 17.594C32.2666 16.8045 32.5132 15.9398 32.5132 15.0188C32.5132 13.5338 31.9378 12.2556 30.7663 11.2218C29.5948 10.188 28.1973 9.66166 26.5531 9.66166C25.4022 9.66166 24.3541 9.94361 23.4087 10.4887C23.532 10.0376 23.5731 9.53008 23.5731 9.00376C23.5731 7.19925 22.8743 5.6579 21.4563 4.3797C20.0382 3.1015 18.3324 2.4812 16.3388 2.4812C14.4069 2.4812 12.7422 3.1015 11.3447 4.30451C9.94715 5.50752 9.20728 7.01128 9.14562 8.7594H8.79624C7.17264 8.7594 5.79565 9.28572 4.62419 10.3383C3.45273 11.391 2.87727 12.688 2.87727 14.1541Z" fill="#2A4759"/>
</svg>
